<svg width="118" height="25" viewBox="0 0 118 25" fill="none" xmlns="http://www.w3.org/2000/svg">
<path d="M4.50891 13.2528L3.5991 13.5943L4.50891 13.9222L11.8409 16.4224V20.1249L0 15.1108V12.0368L11.8409 7.02277V10.7116L4.50891 13.2528Z" fill="#33FFA9"/>
<path d="M18.7081 25H15.2428L22.5347 1H26L18.7081 25Z" fill="#33FFA9"/>
<path d="M41.1895 6.20312H43.6592L43.668 15.0713C43.6621 15.6807 43.5449 16.2373 43.3164 16.7412C43.0938 17.2393 42.7861 17.6699 42.3936 18.0332C42.001 18.3965 41.5381 18.6777 41.0049 18.877C40.4775 19.0762 39.9092 19.1758 39.2998 19.1758C38.6553 19.1758 38.0693 19.0938 37.542 18.9297C37.0146 18.7656 36.5605 18.5225 36.1797 18.2002C35.8047 17.8721 35.5117 17.4619 35.3008 16.9697C35.0898 16.4775 34.9814 15.9004 34.9756 15.2383H37.4541C37.46 15.9238 37.6123 16.4219 37.9111 16.7324C38.21 17.0371 38.6729 17.1895 39.2998 17.1895C39.5811 17.1895 39.8389 17.1367 40.0732 17.0312C40.3076 16.9199 40.5068 16.7705 40.6709 16.583C40.835 16.3955 40.9609 16.1729 41.0488 15.915C41.1426 15.6514 41.1895 15.3701 41.1895 15.0713V6.20312ZM48.1332 10.7998C48.4496 10.3369 48.8334 9.97363 49.2845 9.70996C49.7416 9.44629 50.2513 9.31445 50.8138 9.31445C51.3119 9.31445 51.7689 9.39062 52.1849 9.54297C52.6009 9.68945 52.9584 9.9209 53.2572 10.2373C53.556 10.5537 53.7875 10.9609 53.9515 11.459C54.1214 11.9512 54.2064 12.5459 54.2064 13.2432V19H51.763V13.2256C51.763 12.8857 51.7191 12.5928 51.6312 12.3467C51.5492 12.1006 51.4291 11.9014 51.2709 11.749C51.1127 11.5967 50.9222 11.4854 50.6996 11.415C50.4769 11.3389 50.225 11.3008 49.9437 11.3008C49.5336 11.3008 49.1761 11.374 48.8714 11.5205C48.5726 11.667 48.3265 11.8721 48.1332 12.1357V19H45.6898V5.5H48.1332V10.7998ZM55.8064 14.1572C55.8064 13.4658 55.906 12.8271 56.1052 12.2412C56.3044 11.6494 56.5945 11.1367 56.9753 10.7031C57.362 10.2695 57.8308 9.92969 58.3816 9.68359C58.9382 9.4375 59.5739 9.31445 60.2888 9.31445C61.0036 9.31445 61.6394 9.4375 62.196 9.68359C62.7527 9.92969 63.2214 10.2695 63.6023 10.7031C63.989 11.1367 64.282 11.6494 64.4812 12.2412C64.6804 12.8271 64.78 13.4658 64.78 14.1572V14.3418C64.78 15.0391 64.6804 15.6836 64.4812 16.2754C64.282 16.8613 63.9919 17.3711 63.6111 17.8047C63.2302 18.2383 62.7614 18.5781 62.2048 18.8242C61.6482 19.0645 61.0154 19.1846 60.3064 19.1846C59.5915 19.1846 58.9529 19.0645 58.3904 18.8242C57.8337 18.5781 57.362 18.2383 56.9753 17.8047C56.5945 17.3711 56.3044 16.8613 56.1052 16.2754C55.906 15.6836 55.8064 15.0391 55.8064 14.3418V14.1572ZM58.2497 14.3418C58.2497 14.7402 58.2878 15.1152 58.364 15.4668C58.4402 15.8125 58.5603 16.1172 58.7243 16.3809C58.8884 16.6387 59.0993 16.8438 59.3571 16.9961C59.6208 17.1484 59.9372 17.2246 60.3064 17.2246C60.6638 17.2246 60.9714 17.1484 61.2292 16.9961C61.487 16.8438 61.695 16.6387 61.8532 16.3809C62.0173 16.1172 62.1374 15.8125 62.2136 15.4668C62.2898 15.1152 62.3279 14.7402 62.3279 14.3418V14.1572C62.3279 13.7705 62.2898 13.4043 62.2136 13.0586C62.1374 12.7129 62.0173 12.4082 61.8532 12.1445C61.695 11.8809 61.487 11.6729 61.2292 11.5205C60.9714 11.3682 60.6579 11.292 60.2888 11.292C59.9255 11.292 59.615 11.3682 59.3571 11.5205C59.0993 11.6729 58.8884 11.8809 58.7243 12.1445C58.5603 12.4082 58.4402 12.7129 58.364 13.0586C58.2878 13.4043 58.2497 13.7705 58.2497 14.1572V14.3418ZM68.8057 9.49023L68.9552 10.8086C69.295 10.334 69.7081 9.96777 70.1944 9.70996C70.6807 9.44629 71.2198 9.31445 71.8116 9.31445C72.2921 9.31445 72.7315 9.38477 73.13 9.52539C73.5284 9.66602 73.8712 9.8916 74.1583 10.2021C74.4513 10.5068 74.6768 10.9023 74.835 11.3887C74.9991 11.8691 75.0811 12.4551 75.0811 13.1465V19H72.6378V13.1816C72.6378 12.8066 72.5938 12.499 72.5059 12.2588C72.4239 12.0127 72.3038 11.8193 72.1456 11.6787C71.9874 11.5381 71.797 11.4414 71.5743 11.3887C71.3516 11.3301 71.0997 11.3008 70.8184 11.3008C70.4024 11.3008 70.0479 11.3857 69.755 11.5557C69.462 11.7197 69.2247 11.9482 69.043 12.2412V19H66.5909V9.49023H68.8057ZM87.3514 19V6.20312H90.6648C91.5145 6.20312 92.282 6.34961 92.9676 6.64258C93.659 6.92969 94.2479 7.33398 94.7342 7.85547C95.2264 8.37109 95.6043 8.98926 95.868 9.70996C96.1375 10.4307 96.2723 11.2217 96.2723 12.083V13.1377C96.2723 13.999 96.1375 14.79 95.868 15.5107C95.6043 16.2256 95.2322 16.8438 94.7518 17.3652C94.2713 17.8809 93.6941 18.2822 93.0203 18.5693C92.3465 18.8564 91.6023 19 90.7879 19H87.3514ZM89.8387 8.20703V17.0137H90.7879C91.2508 17.0137 91.6639 16.9258 92.0271 16.75C92.3963 16.5742 92.7068 16.3193 92.9588 15.9854C93.2166 15.6514 93.4129 15.2471 93.5477 14.7725C93.6824 14.292 93.7498 13.7471 93.7498 13.1377V12.0654C93.7498 11.4912 93.6824 10.9697 93.5477 10.501C93.4188 10.0264 93.2225 9.61914 92.9588 9.2793C92.701 8.93945 92.3787 8.67578 91.992 8.48828C91.6111 8.30078 91.1688 8.20703 90.6648 8.20703H89.8387ZM97.6086 14.1572C97.6086 13.4658 97.7082 12.8271 97.9074 12.2412C98.1066 11.6494 98.3966 11.1367 98.7775 10.7031C99.1642 10.2695 99.633 9.92969 100.184 9.68359C100.74 9.4375 101.376 9.31445 102.091 9.31445C102.806 9.31445 103.442 9.4375 103.998 9.68359C104.555 9.92969 105.024 10.2695 105.404 10.7031C105.791 11.1367 106.084 11.6494 106.283 12.2412C106.483 12.8271 106.582 13.4658 106.582 14.1572V14.3418C106.582 15.0391 106.483 15.6836 106.283 16.2754C106.084 16.8613 105.794 17.3711 105.413 17.8047C105.032 18.2383 104.564 18.5781 104.007 18.8242C103.45 19.0645 102.818 19.1846 102.109 19.1846C101.394 19.1846 100.755 19.0645 100.193 18.8242C99.6359 18.5781 99.1642 18.2383 98.7775 17.8047C98.3966 17.3711 98.1066 16.8613 97.9074 16.2754C97.7082 15.6836 97.6086 15.0391 97.6086 14.3418V14.1572ZM100.052 14.3418C100.052 14.7402 100.09 15.1152 100.166 15.4668C100.242 15.8125 100.362 16.1172 100.527 16.3809C100.691 16.6387 100.902 16.8438 101.159 16.9961C101.423 17.1484 101.739 17.2246 102.109 17.2246C102.466 17.2246 102.774 17.1484 103.031 16.9961C103.289 16.8438 103.497 16.6387 103.655 16.3809C103.819 16.1172 103.94 15.8125 104.016 15.4668C104.092 15.1152 104.13 14.7402 104.13 14.3418V14.1572C104.13 13.7705 104.092 13.4043 104.016 13.0586C103.94 12.7129 103.819 12.4082 103.655 12.1445C103.497 11.8809 103.289 11.6729 103.031 11.5205C102.774 11.3682 102.46 11.292 102.091 11.292C101.728 11.292 101.417 11.3682 101.159 11.5205C100.902 11.6729 100.691 11.8809 100.527 12.1445C100.362 12.4082 100.242 12.7129 100.166 13.0586C100.09 13.4043 100.052 13.7705 100.052 14.1572V14.3418ZM113.007 19.1758C112.275 19.1758 111.61 19.0557 111.012 18.8154C110.415 18.5752 109.902 18.25 109.474 17.8398C109.046 17.4238 108.715 16.9375 108.481 16.3809C108.252 15.8184 108.138 15.2178 108.138 14.5791V14.2275C108.138 13.501 108.252 12.8389 108.481 12.2412C108.709 11.6377 109.029 11.1191 109.439 10.6855C109.849 10.252 110.335 9.91504 110.898 9.6748C111.46 9.43457 112.073 9.31445 112.735 9.31445C113.42 9.31445 114.03 9.42871 114.563 9.65723C115.102 9.87988 115.556 10.1963 115.925 10.6064C116.3 11.0166 116.584 11.5117 116.778 12.0918C116.971 12.666 117.068 13.3018 117.068 13.999V15.0361H110.617C110.664 15.3584 110.757 15.6543 110.898 15.9238C111.044 16.1875 111.229 16.416 111.452 16.6094C111.674 16.8027 111.929 16.9521 112.216 17.0576C112.503 17.1631 112.817 17.2158 113.157 17.2158C113.397 17.2158 113.634 17.1924 113.869 17.1455C114.109 17.0986 114.337 17.0312 114.554 16.9434C114.771 16.8496 114.973 16.7354 115.161 16.6006C115.348 16.4658 115.512 16.3076 115.653 16.126L116.875 17.4443C116.722 17.6611 116.523 17.875 116.277 18.0859C116.037 18.291 115.75 18.4756 115.416 18.6396C115.087 18.7979 114.721 18.9268 114.317 19.0264C113.913 19.126 113.476 19.1758 113.007 19.1758ZM112.717 11.292C112.442 11.292 112.19 11.3418 111.961 11.4414C111.733 11.5352 111.531 11.6729 111.355 11.8545C111.185 12.0361 111.042 12.2529 110.924 12.5049C110.807 12.7568 110.719 13.0381 110.661 13.3486H114.668V13.1553C114.657 12.8975 114.607 12.6543 114.519 12.4258C114.431 12.1973 114.305 12.001 114.141 11.8369C113.977 11.667 113.775 11.5352 113.535 11.4414C113.3 11.3418 113.028 11.292 112.717 11.292Z" fill="white"/>
</svg>
